<?xml version="1.0" encoding="utf-8"?>
<!-- Generator: Adobe Illustrator 23.0.0, SVG Export Plug-In . SVG Version: 6.00 Build 0)  -->
<svg version="1.1" id="OBJECTS" xmlns="http://www.w3.org/2000/svg" xmlns:xlink="http://www.w3.org/1999/xlink" x="0px" y="0px"
	 viewBox="0 0 524 492" style="enable-background:new 0 0 524 492;" xml:space="preserve">
<style type="text/css">
	.st0{fill:none;stroke:#FB4275;stroke-width:0.4429;stroke-miterlimit:10;}
	.st1{fill:#F9DEE6;}
	.st2{fill:#FB4275;}
	.st3{fill:#333333;}
	.st4{fill:none;stroke:#D5B2B2;stroke-width:0.3034;stroke-miterlimit:10;}
	.st5{fill:none;stroke:#D5B2B2;stroke-width:0.4575;stroke-miterlimit:10;}
	.st6{fill:none;stroke:#FB4275;stroke-width:0.4575;stroke-miterlimit:10;}
	.st7{fill:none;stroke:#FFFFFF;stroke-width:0.4328;stroke-miterlimit:10;}
	.st8{fill:#3C6BE0;}
	.st9{fill:none;stroke:#FB4275;stroke-width:0.4898;stroke-miterlimit:10;}
	.st10{fill:#FDFDFD;}
	.st11{fill:#73C994;}
	.st12{fill:none;stroke:#FFFFFF;stroke-width:0.478;stroke-miterlimit:10;}
	.st13{fill:none;stroke:#FFFFFF;stroke-width:0.3929;stroke-miterlimit:10;}
	.st14{fill:#1F2326;}
	.st15{fill:#E3A6A9;}
	.st16{fill:#E1A4A7;}
	.st17{fill:#262127;}
	.st18{fill:#747F99;}
	.st19{fill:#D7A99F;}
	.st20{fill:#B22F57;}
	.st21{fill:#0B0006;}
	.st22{fill:#2C3336;}
	.st23{fill:#FFFFFF;}
	.st24{fill:none;stroke:#AF7079;stroke-width:0.402;stroke-linecap:round;stroke-linejoin:round;stroke-miterlimit:10;}
	.st25{fill:#1C1927;}
	.st26{fill:#DF7246;}
	.st27{fill:#966150;}
	.st28{fill:none;stroke:#7C473D;stroke-width:0.3985;stroke-linecap:round;stroke-linejoin:round;stroke-miterlimit:10;}
	.st29{fill:#171618;}
	.st30{fill:#EAC140;}
	.st31{fill:#DBAF37;}
	.st32{fill:#A82950;}
	.st33{fill:#0D0D0D;}
	.st34{fill:none;stroke:#AF7079;stroke-width:0.3938;stroke-linecap:round;stroke-linejoin:round;stroke-miterlimit:10;}
	.st35{fill:#3F3F3F;}
	.st36{fill:#4E4F4F;}
	.st37{fill:#5E5F60;}
</style>
<g>
	<g>
		<g>
			<g>
				<path class="st0" d="M408.08,332.2H134.2c-2.02,0-3.65-1.63-3.65-3.65V157.51c0-2.02,1.63-3.65,3.65-3.65h273.87
					c2.02,0,3.65,1.63,3.65,3.65v171.04C411.73,330.57,410.09,332.2,408.08,332.2z"/>
				<path class="st1" d="M423.6,318.72H149.73c-2.02,0-3.65-1.63-3.65-3.65V144.03c0-2.02,1.63-3.65,3.65-3.65H423.6
					c2.02,0,3.65,1.63,3.65,3.65v171.04C427.26,317.09,425.62,318.72,423.6,318.72z"/>
				<g>
					<circle class="st2" cx="168.34" cy="151.25" r="3.56"/>
					<circle class="st3" cx="180.17" cy="151.25" r="3.56"/>
					<circle class="st4" cx="192" cy="151.25" r="3.56"/>
				</g>
			</g>
			<g>
				<path class="st5" d="M385.09,295.34h-87.86c-0.98,0-1.77-0.79-1.77-1.77v-49.94c0-0.98,0.79-1.77,1.77-1.77h87.86
					c0.98,0,1.77,0.79,1.77,1.77v49.94C386.86,294.55,386.07,295.34,385.09,295.34z"/>
				<g>
					<path class="st6" d="M263.42,293.58h-93.14c-0.98,0-1.77-0.79-1.77-1.77V180.64c0-0.98,0.79-1.77,1.77-1.77h93.14
						c0.98,0,1.77,0.79,1.77,1.77v111.17C265.19,292.79,264.4,293.58,263.42,293.58z"/>
					<path class="st7" d="M239.99,250.05h-52.03c-1.51,0-2.73-1.22-2.73-2.73v-48.89c0-1.51,1.22-2.73,2.73-2.73h52.03
						c1.51,0,2.73,1.22,2.73,2.73v48.89C242.71,248.82,241.49,250.05,239.99,250.05z"/>
					<g>
						<line class="st7" x1="185.23" y1="260.57" x2="241.24" y2="260.57"/>
						<line class="st7" x1="185.23" y1="269.94" x2="213.97" y2="269.94"/>
						<line class="st7" x1="185.23" y1="279.3" x2="227.1" y2="279.3"/>
					</g>
				</g>
				<g>
					<path class="st7" d="M361.54,225.74h-62.27c-0.95,0-1.71-0.77-1.71-1.71v-61.9c0-0.95,0.77-1.71,1.71-1.71h62.27
						c0.95,0,1.71,0.77,1.71,1.71v61.9C363.25,224.97,362.49,225.74,361.54,225.74z"/>
					<g>
						<path class="st7" d="M349.33,206.4h-38.91c-1.67,0-3.03-1.36-3.03-3.03l0,0c0-1.67,1.36-3.03,3.03-3.03h38.91
							c1.67,0,3.03,1.36,3.03,3.03l0,0C352.36,205.04,351.01,206.4,349.33,206.4z"/>
						<g>
							<path class="st7" d="M349.33,186.45h-38.91c-1.67,0-3.03-1.36-3.03-3.03l0,0c0-1.67,1.36-3.03,3.03-3.03h38.91
								c1.67,0,3.03,1.36,3.03,3.03l0,0C352.36,185.09,351.01,186.45,349.33,186.45z"/>
							<path class="st8" d="M324.06,183.42c0,2.81-2.28,5.1-5.1,5.1c-2.81,0-5.1-2.28-5.1-5.1s2.28-5.1,5.1-5.1
								C321.78,178.32,324.06,180.6,324.06,183.42z"/>
						</g>
					</g>
				</g>
			</g>
		</g>
		<g>
			<g>
				<path class="st0" d="M86.84,156.33h-19.9c-1.02,0-1.85,0.84-1.85,1.87v11.19c0,1.03,0.83,1.87,1.85,1.87h8.11l6.82,7.61v-7.33
					l5.01-0.1c1-0.02,1.81-0.85,1.81-1.87V158.2C88.69,157.16,87.86,156.33,86.84,156.33z"/>
				<ellipse class="st9" cx="52.97" cy="313.1" rx="5.56" ry="5.64"/>
				<path class="st9" d="M476.59,246.97c0,2.27-1.81,4.11-4.05,4.11c-2.24,0-4.05-1.84-4.05-4.11s1.81-4.11,4.05-4.11
					C474.78,242.86,476.59,244.7,476.59,246.97z"/>
				<rect x="277.55" y="96.37" class="st9" width="8.41" height="8.53"/>
			</g>
			<g>
				<g>
					<g>
						<path class="st8" d="M337.42,260.05h26.39v-26.62c0-1.04-0.84-1.88-1.88-1.88h-24.51c-1.04,0-1.88,0.84-1.88,1.88v24.74
							C335.54,259.21,336.38,260.05,337.42,260.05z"/>
						<polygon class="st8" points="363.81,255.45 363.81,265.39 355.36,255.45 						"/>
					</g>
					<g>
						<g>
							<g>
								<path class="st10" d="M347.64,250.73c2.4,0.04,4.82,0.07,7.03-0.08c0.7-0.05,1.3-1.16,0.45-1.51
									c0.36-0.18,0.72-0.36,0.87-0.76c0.15-0.38-0.03-0.89-0.42-0.99c0.83,0.21,1.16-1.11,0.51-1.54c0.34-0.29,0.63-0.68,0.7-1.12
									c0.07-0.45-0.11-0.95-0.51-1.16c-0.26-0.14-0.57-0.15-0.86-0.15c-1-0.01-1.99-0.01-2.99-0.02c0.27-1.56,0.35-3.26-0.44-4.63
									c-0.24-0.41-0.88-0.91-1.39-0.59c-0.48,0.3-0.34,1.04-0.32,1.5c0.1,1.94-1,3.89-2.72,4.81
									C347.55,244.49,347.66,248.62,347.64,250.73z"/>
							</g>
						</g>
						<rect x="343.15" y="244.49" class="st10" width="3.62" height="6.24"/>
					</g>
				</g>
				<g>
					<g>
						<g>
							<path class="st11" d="M200.33,210.16h-37.96c-2.11,0-3.82-1.71-3.82-3.82v-38.31c0-1.64,1.33-2.98,2.98-2.98h38.79
								c1.64,0,2.98,1.33,2.98,2.98v39.15C203.3,208.83,201.97,210.16,200.33,210.16z"/>
						</g>
					</g>
					<g>
						<polyline class="st12" points="164.71,195.65 176.97,185.84 181.44,190.8 193.73,181.48 						"/>
						<polyline class="st12" points="191.4,180.72 194.08,181.35 193.7,183.94 						"/>
					</g>
				</g>
				<g>
					<g>
						<path class="st2" d="M454.4,199.4h-75.34c-1.24,0-2.24-1-2.24-2.24v-74.31c0-1.24,1-2.24,2.24-2.24h75.34
							c1.24,0,2.24,1,2.24,2.24v74.31C456.64,198.39,455.64,199.4,454.4,199.4z"/>
					</g>
					<g>
						<line class="st7" x1="402.48" y1="166.58" x2="420.16" y2="166.58"/>
						<line class="st7" x1="391.19" y1="174.9" x2="442.11" y2="174.9"/>
						<line class="st7" x1="391.19" y1="184.46" x2="406.51" y2="184.46"/>
						<line class="st7" x1="410.42" y1="184.46" x2="421.26" y2="184.46"/>
						<line class="st7" x1="391.19" y1="166.58" x2="398.04" y2="166.58"/>
					</g>
					<g>
						<g>
							<path class="st7" d="M411.4,137.86v10.9c0,0.88,0.95,1.43,1.71,0.99l9.44-5.45c0.76-0.44,0.76-1.54,0-1.98l-9.44-5.45
								C412.35,136.43,411.4,136.98,411.4,137.86z"/>
						</g>
						
							<ellipse transform="matrix(0.7071 -0.7071 0.7071 0.7071 20.463 336.0172)" class="st13" cx="415.84" cy="143.31" rx="14.74" ry="14.74"/>
					</g>
				</g>
			</g>
		</g>
		<g>
			<g>
				<path d="M414.78,352.51H384.4c-1.77,0-3.2-1.43-3.2-3.2l0,0c0-1.77,1.43-3.2,3.2-3.2h30.37c1.77,0,3.2,1.43,3.2,3.2l0,0
					C417.98,351.08,416.55,352.51,414.78,352.51z"/>
				<g>
					
						<rect x="413.21" y="370.28" transform="matrix(6.123234e-17 -1 1 6.123234e-17 24.4022 805.7232)" class="st14" width="3.7" height="40.75"/>
					<path class="st14" d="M398.17,391.77c0.32,1.92-0.98,3.74-2.9,4.06c-1.92,0.32-3.74-0.98-4.06-2.9
						c-0.32-1.92,0.98-3.74,2.9-4.06C396.03,388.55,397.85,389.85,398.17,391.77z"/>
					<rect x="413.07" y="350.41" class="st14" width="3.99" height="40.63"/>
					<path class="st14" d="M438.92,391.77c0.32,1.92-0.98,3.74-2.9,4.06c-1.92,0.32-3.74-0.98-4.06-2.9
						c-0.32-1.92,0.98-3.74,2.9-4.06C436.78,388.55,438.6,389.85,438.92,391.77z"/>
				</g>
				<path class="st14" d="M435.68,352.51h-35.84c-2.45,0-4.2-2.39-3.51-4.78l17.12-59c0.46-1.58,1.89-2.67,3.51-2.67h35.84
					c2.44,0,4.2,2.39,3.51,4.78l-17.12,59C438.73,351.43,437.3,352.51,435.68,352.51z"/>
				<path class="st15" d="M430.75,352.51h-31.22c-2.45,0-4.2-2.39-3.51-4.78l17.12-59c0.46-1.58,1.89-2.67,3.51-2.67h31.22
					c2.44,0,4.2,2.39,3.51,4.78l-17.12,59C433.8,351.43,432.37,352.51,430.75,352.51z"/>
				<path class="st14" d="M435.67,352.51h-37.94c-1.77,0-3.2-1.43-3.2-3.2l0,0c0-1.77,1.43-3.2,3.2-3.2h37.94
					c1.77,0,3.2,1.43,3.2,3.2l0,0C438.87,351.08,437.44,352.51,435.67,352.51z"/>
			</g>
			<g>
				<g>
					<g>
						<g>
							
								<rect x="377.32" y="365.86" transform="matrix(0.866 -0.5 0.5 0.866 -135.0742 241.0456)" class="st16" width="9.96" height="13.47"/>
							<g>
								<g>
									<defs>
										<path id="XMLID_66_" d="M389.18,374.55l-10.94,6.32l-5.8,8.43c-1.27,1.97-1.33,4.49-0.16,6.53l0,0l21.88-12.63
											L389.18,374.55z"/>
									</defs>
									<use xlink:href="#XMLID_66_"  style="overflow:visible;fill:#262127;"/>
									<clipPath id="XMLID_2_">
										<use xlink:href="#XMLID_66_"  style="overflow:visible;"/>
									</clipPath>
								</g>
								<path class="st17" d="M377.58,381.79l0.54-4.76c0,0,3.45-2.93,5.53,1.46L377.58,381.79z"/>
							</g>
						</g>
						<g>
							<g>
								<path class="st18" d="M371.96,317.45c0,0-26.35-1.33-24.09,8.74c2.26,10.07,19.38,51.11,19.38,51.11l22.04-5.68
									l-16.67-31.02l32.29-12.13L371.96,317.45z"/>
							</g>
						</g>
					</g>
					<g>
						<g>
							<rect x="365.59" y="373.98" class="st16" width="9.96" height="13.47"/>
							<g>
								<g>
									<defs>
										<path id="XMLID_79_" d="M375.55,385.84h-12.63l-9.23,4.4c-2.09,1.07-3.4,3.22-3.4,5.57l0,0h25.27V385.84z"/>
									</defs>
									<use xlink:href="#XMLID_79_"  style="overflow:visible;fill:#262127;"/>
									<clipPath id="XMLID_3_">
										<use xlink:href="#XMLID_79_"  style="overflow:visible;"/>
									</clipPath>
								</g>
								<path class="st17" d="M361.89,386.32l2.84-3.85c0,0,4.45-0.81,4.06,4.03L361.89,386.32z"/>
							</g>
						</g>
						<g>
							<path class="st18" d="M396.88,324.21l-30.84,0.47c-2.66,0.04-5.14,1.54-6.25,3.96c-0.87,1.9-1.51,4.7-1.4,8.8
								c0.33,11.43,3.69,39.81,3.69,39.81h18.52l-2.49-30l33.97-0.42c6.97-0.09,13.49-3.97,16.44-10.29
								c1.23-2.64,1.86-5.63,1.15-8.78L396.88,324.21z"/>
						</g>
					</g>
				</g>
				<g>
					<g>
						<g>
							<path class="st19" d="M364.67,317.36c0.01,3.22-2.18,3.71-5.4,3.71c-3.22,0.01-6.26-0.47-6.27-3.69
								c-0.01-3.22,2.6-5.84,5.82-5.84C362.05,311.54,364.67,314.14,364.67,317.36z"/>
							<path class="st19" d="M368.77,320.66l-6.74,0.01c-1.76,0-3.2-1.43-3.21-3.19l0,0c0-1.76,1.43-3.2,3.19-3.21l6.74-0.01
								c1.76,0,3.2,1.43,3.21,3.19l0,0C371.97,319.21,370.53,320.65,368.77,320.66z"/>
						</g>
						<path class="st20" d="M368.51,321.34l-2.25-11.03l26-6.08l5.04-28.5c0.56-2.94,4.03-6.06,6.97-5.5l0,0
							c2.94,0.56,5.64,3.98,5.09,6.92l-3.24,37.14c-0.4,2.09-1.98,3.75-4.04,4.26L368.51,321.34z"/>
					</g>
					<g>
						<path class="st2" d="M426.17,269.86c6.9,0.3,9.92,7.45,10.14,12.23l-6.65,45.67c-28.71-0.25-32.78-3.55-32.78-3.55v-46.02
							c0.35-4.43,2.38-8.6,7.43-9.02l10.31-0.96L426.17,269.86z"/>
						<path class="st16" d="M406.01,269.01l7.39-1.12l8.22,1.32c0,0-0.71,6.85-11.05,5.64c-1.56-0.18-3.06-0.75-4.12-1.71
							C405.4,272.18,405.14,270.88,406.01,269.01z"/>
					</g>
					<g>
						<polygon class="st20" points="404.48,310.18 419.67,304.99 421.42,289.9 422.44,307.33 						"/>
						<path class="st20" d="M430.89,319.29c-0.1-0.01-0.75,5.17-0.75,5.17s-31.4,2.82-35.97-0.31L430.89,319.29z"/>
						<g>
							<g>
								<path class="st19" d="M392.24,320.98c0.22,3.21-1.93,3.84-5.14,4.06c-3.21,0.22-6.28-0.05-6.5-3.27
									c-0.22-3.21,2.2-6,5.42-6.22C389.24,315.34,392.02,317.76,392.24,320.98z"/>
								<path class="st19" d="M396.55,323.99l-6.72,0.46c-1.76,0.12-3.29-1.22-3.41-2.97l0,0c-0.12-1.76,1.22-3.29,2.97-3.41
									l6.72-0.46c1.76-0.12,3.29,1.22,3.41,2.97l0,0C399.64,322.33,398.3,323.87,396.55,323.99z"/>
							</g>
							<path class="st2" d="M396.33,324.69l-2.98-12.5l29.09-4.85l-1.45-24.72c-1.18-5.49,3.88-10.28,7.79-9.65l0,0
								c3.73-0.06,6.81,2.83,7.53,8.43l2.01,33.76c-0.26,2.11-1.72,3.88-3.75,4.52L396.33,324.69z"/>
						</g>
					</g>
					<g>
						<path class="st21" d="M344.09,287.39l32.94,3.11c1.08,0.1,1.95,0.95,2.07,2.03l3.46,29.68c0.17,1.46-1.05,2.7-2.51,2.56
							l-33.49-3.16c-1.1-0.1-1.97-0.97-2.08-2.07l-2.91-29.63C341.44,288.47,342.65,287.25,344.09,287.39z"/>
						<path class="st22" d="M342.2,287.21l32.94,3.11c1.08,0.1,1.95,0.95,2.07,2.03l3.46,29.69c0.17,1.46-1.05,2.7-2.51,2.56
							l-33.49-3.16c-1.1-0.1-1.97-0.97-2.08-2.07l-2.91-29.63C339.54,288.29,340.75,287.07,342.2,287.21z"/>
						<path class="st21" d="M381.65,322.41l22.51,2.12c0.69,0.06,1.19,0.67,1.13,1.36l0,0c-0.06,0.69-0.67,1.19-1.36,1.12
							l-23.87-2.16L381.65,322.41z"/>
						<path class="st23" d="M361.08,305.22c-0.19,1.98-1.95,3.44-3.93,3.25c-1.98-0.19-3.44-1.95-3.25-3.93
							c0.19-1.98,1.95-3.44,3.93-3.25C359.81,301.48,361.26,303.23,361.08,305.22z"/>
					</g>
				</g>
				<g>
					<path class="st21" d="M402.04,227.78c3.42-0.16,6.36,2.29,6.88,5.6c0.79-0.58,1.76-0.95,2.81-1c2.84-0.14,5.19,1.11,5.88,3.93
						c16.36-1.78,1.02,22.29,1.02,22.29l-1.24-9.27l-0.45-10.39c-0.59,2.07-2.44,3.63-4.71,3.74c-2.38,0.11-4.46-1.41-5.15-3.59
						c-1.13,1.14-2.67,1.88-4.39,1.96c-3.66,0.18-6.78-2.65-6.95-6.32C395.55,231.07,398.38,227.96,402.04,227.78z"/>
					<path class="st16" d="M419.58,251.33l-0.34,17.78c-0.06,3.16-2.56,5.72-5.71,5.87l0,0c-3.38,0.16-6.23-2.5-6.29-5.89
						l-0.26-14.93L419.58,251.33z"/>
					<path class="st21" d="M418.35,255.44c0,0,0,11.67-11.16,10.26l-0.09-5.37L418.35,255.44z"/>
					<path class="st16" d="M409.21,262.92l0.38,0c5.58,0,10.1-4.51,10.1-10.09l0.01-11.4c0-1.44-1.17-2.61-2.61-2.62l-13.29-0.01
						c-2.58,0-4.67,2.09-4.67,4.66l-0.01,9.35C399.12,258.39,403.63,262.92,409.21,262.92z"/>
					<g>
						<path class="st21" d="M409.14,249.58c0.04,0.45,0.43,0.79,0.88,0.76c0.45-0.03,0.79-0.43,0.76-0.88s-0.43-0.79-0.88-0.76
							C409.44,248.73,409.1,249.13,409.14,249.58z"/>
						<path class="st21" d="M400.95,249.59c0.03,0.45,0.43,0.79,0.88,0.76c0.45-0.03,0.79-0.43,0.76-0.88
							c-0.03-0.45-0.43-0.79-0.88-0.76C401.26,248.74,400.92,249.14,400.95,249.59z"/>
						<path class="st24" d="M404.22,250.35l-0.27,1.97c0,0,0.15,1.24,1.92,0.76"/>
						<path class="st21" d="M412.13,246.38c-0.05,0.01-0.1,0.01-0.15,0.01l-3.73-0.14c-0.42-0.02-0.74-0.37-0.73-0.78
							c0.02-0.42,0.36-0.74,0.78-0.73l3.73,0.14c0.42,0.02,0.74,0.37,0.73,0.78C412.75,246.03,412.48,246.32,412.13,246.38z"/>
						<path class="st21" d="M402.5,246.25c-0.05,0.01-0.1,0.01-0.15,0.01l-2.28-0.09c-0.42-0.02-0.74-0.37-0.73-0.78
							c0.02-0.42,0.37-0.74,0.78-0.73l2.28,0.08c0.42,0.02,0.74,0.37,0.73,0.78C403.12,245.9,402.85,246.2,402.5,246.25z"/>
						<path class="st24" d="M402.87,255.41c0,0,2.57,1.51,5.81,0.12"/>
					</g>
					<path class="st21" d="M419.42,251.01c0,0-5.79-1.32-4.69-10.11l-14.66-0.25l0.35-3.58l16.26,0.22
						c2.32,0.03,4.11,2.04,3.88,4.35L419.42,251.01z"/>
					<path class="st16" d="M417.39,250.73c0,1.79,1.45,3.25,3.25,3.25c1.79,0,3.25-1.45,3.25-3.25c0-1.79-1.45-3.25-3.25-3.25
						C418.84,247.48,417.39,248.94,417.39,250.73z"/>
				</g>
			</g>
		</g>
		<g>
			<g>
				<g>
					<path class="st25" d="M287.32,190.98c-3.33,3.33-8.16,3.88-10.81,1.24c-2.64-2.64-2.09-7.48,1.24-10.81s8.16-3.88,10.81-1.24
						C291.21,182.82,290.65,187.65,287.32,190.98z"/>
					<path class="st26" d="M281.68,192.25c0,2.87-2.33,5.2-5.2,5.2c-2.87,0-5.2-2.33-5.2-5.2s2.33-5.2,5.2-5.2
						C279.36,187.05,281.68,189.38,281.68,192.25z"/>
				</g>
				<path class="st25" d="M253.99,200.78c0.3,7.65,7.48,14.4,15.13,14.09c7.65-0.3,14.18-7.37,13.87-15.02
					c-0.3-7.65-6.65-14.46-15.34-12.94C260.11,188.23,253.68,193.13,253.99,200.78z"/>
				<g>
					<g>
						<path class="st27" d="M274.46,222.45l-0.62-16.5l-10.18,0.45l0.62,16.5c0.12,2.81,2.51,4.99,5.32,4.87l0,0
							C272.4,227.64,274.58,225.26,274.46,222.45z"/>
					</g>
					<path class="st25" d="M274.23,206.69c0,0-0.59,12.21-10.01,12.39l-0.26-6.09L274.23,206.69z"/>
				</g>
				<path class="st27" d="M265.92,216.92L265.92,216.92c-5.46,0.22-10.05-2.9-10.27-8.35l-0.37-9.38c-0.16-4.03,4.07-8.44,6.44-8.54
					l8.85,2.11c2.37-0.09,4.4,1.77,4.49,4.15l0.37,9.35C275.65,211.7,270.52,216.74,265.92,216.92z"/>
				<g>
					<path class="st17" d="M264.77,203.96c0.05,0.43,0.44,0.74,0.87,0.69c0.43-0.05,0.74-0.44,0.69-0.87
						c-0.05-0.43-0.44-0.74-0.87-0.69C265.03,203.14,264.72,203.52,264.77,203.96z"/>
					<path class="st17" d="M257.57,204.18c0.05,0.43,0.44,0.74,0.87,0.69c0.43-0.05,0.74-0.44,0.69-0.87
						c-0.05-0.43-0.44-0.74-0.87-0.69C257.84,203.36,257.52,203.75,257.57,204.18z"/>
					<path class="st28" d="M260.69,205.22l-0.12,2.26c0,0,0.18,1.18,1.85,0.66"/>
					<path class="st17" d="M267.57,201.49c-0.05,0.01-0.1,0.01-0.15,0.01l-3.56-0.01c-0.4,0-0.72-0.32-0.72-0.72
						c0-0.4,0.32-0.72,0.72-0.72l3.56,0.01c0.4,0,0.72,0.32,0.72,0.72C268.15,201.13,267.9,201.42,267.57,201.49z"/>
					<path class="st17" d="M259,201.64c-0.05,0.01-0.1,0.01-0.15,0.01l-2.18-0.01c-0.4,0-0.72-0.32-0.72-0.72
						c0-0.4,0.32-0.72,0.72-0.72l2.18,0.01c0.4,0,0.72,0.32,0.72,0.72C259.57,201.28,259.32,201.57,259,201.64z"/>
					<path class="st23" d="M259.29,209.89l6.36,0c0,0-0.59,2.41-3.83,2.17C259.6,211.89,259.29,209.89,259.29,209.89z"/>
				</g>
				<path class="st25" d="M270.61,198.3c0,0,0.12,6.06,3.55,6.56l2.33-6.77L270.61,198.3z"/>
				<path class="st27" d="M279.74,204.64c0.08,1.96-1.45,3.62-3.41,3.69c-1.96,0.08-3.62-1.45-3.69-3.41
					c-0.08-1.96,1.45-3.62,3.41-3.69C278.01,201.15,279.66,202.68,279.74,204.64z"/>
				<path class="st25" d="M270.58,186.67c0,0-18.51-1.17-18.34,12.29h25.43l-3.44-9.15L270.58,186.67z"/>
			</g>
			<g>
				<g>
					<g>
						<polygon class="st27" points="276.97,387.62 269.13,387.62 270.94,360.31 280.55,360.31 						"/>
						<g>
							<g>
								<defs>
									<path id="XMLID_117_" d="M268.63,385.89h12.91l9.07,4.33c2.05,1.05,3.34,3.17,3.34,5.47l0,0l-25.85-0.31L268.63,385.89z"/>
								</defs>
								<use xlink:href="#XMLID_117_"  style="overflow:visible;fill:#262127;"/>
								<clipPath id="XMLID_4_">
									<use xlink:href="#XMLID_117_"  style="overflow:visible;"/>
								</clipPath>
							</g>
							<path class="st17" d="M282.55,386.35l-2.79-3.78c0,0-4.37-0.8-3.99,3.96L282.55,386.35z"/>
						</g>
					</g>
					<path class="st17" d="M282.53,257.1c0,0,15.39,10.93,9,47.37l-9,61.56h-13.45l0.78-97.38l-0.78-11.55H282.53z"/>
				</g>
				<g>
					<g>
						<polygon class="st27" points="229.92,387.62 237.77,387.62 245.61,360.31 236.01,360.31 						"/>
						<g>
							<g>
								<defs>
									<path id="XMLID_116_" d="M238.26,385.89h-12.91l-9.07,4.33c-2.05,1.05-3.34,3.17-3.34,5.47l0,0l25.85-0.31L238.26,385.89z"
										/>
								</defs>
								<use xlink:href="#XMLID_116_"  style="overflow:visible;fill:#262127;"/>
								<clipPath id="XMLID_5_">
									<use xlink:href="#XMLID_116_"  style="overflow:visible;"/>
								</clipPath>
							</g>
							<path class="st17" d="M224.34,386.35l2.79-3.78c0,0,4.37-0.8,3.99,3.96L224.34,386.35z"/>
						</g>
					</g>
					<g>
						<path class="st17" d="M257.98,257.21c0,0-6.84,6.21-11.86,33.51c-5.03,27.3-14.26,74.32-14.26,74.32l12.85,0.99l27.69-84.87
							l1.86-23.94H257.98z"/>
						<polygon class="st29" points="269.69,289.44 263.15,279.98 260.56,316.03 						"/>
					</g>
				</g>
			</g>
			<g>
				<g>
					<g>
						<path class="st27" d="M238.4,242.13c0.47,0.02,1.46-0.12,1.92-0.21l27.59-5.84c3.92-0.58,9.66-6.34,8-9.94
							c-1.23-2.64-4.19-4.01-6.99-3.22l-28.21,9.54L238.4,242.13z"/>
						<path class="st27" d="M241.92,233.01l-24.5-16.71l-3.41,4.34l20.19,20c3.52,3.07,10.18,1.13,11.65-3.3l0,0
							C246.87,234.26,244.8,234.47,241.92,233.01z"/>
						<g>
							<path class="st27" d="M217.34,218.16c-1.19,2.82-4.44,4.15-7.27,2.96c-2.82-1.19-4.15-4.44-2.96-7.27
								c1.19-2.82,4.44-4.15,7.27-2.96S218.53,215.33,217.34,218.16z"/>
							<path class="st27" d="M214.11,210.78l-4.83-3.57c-0.39-0.33-0.98-0.29-1.32,0.08l0,0c-0.29,0.32-0.28,0.8,0.01,1.12l4.46,4.7
								L214.11,210.78z"/>
						</g>
					</g>
					<g>
						<path class="st30" d="M259.23,223.94c-5.4,1.2-12.87,4.4-12.87,4.4l8.36,11.37l2.86-0.73L259.23,223.94z"/>
						<path class="st31" d="M254.11,239.02c0,0-0.83-4.3,0-9.47l-4.29,3.5L254.11,239.02z"/>
					</g>
				</g>
				<g>
					<path class="st27" d="M305.98,260.29l2.49-4.56l-12.55-20.87c-1.62-2.79-9.04-7.9-11.26-5.56c-1.63,1.72-1.7,7.02-0.26,8.91
						l15.39,20.54L305.98,260.29z"/>
					<path class="st27" d="M300.04,259.8l7.27,29.05l5.53-0.59l-3.48-29.79c-0.06-3.39-3.55-5.63-6.66-4.26v0
						C300.55,255.15,299.42,257.53,300.04,259.8z"/>
					<path class="st30" d="M280.46,223.45c0,0,9.24,1.28,15.28,8.96l-13.2,12.38c0,0-8.52-7.82-2.83-15.24L280.46,223.45z"/>
					<g>
						<path class="st27" d="M306.32,288.04c2.37-1.87,5.81-1.46,7.67,0.91c1.87,2.37,1.46,5.81-0.91,7.67
							c-2.37,1.87-5.81,1.46-7.67-0.91C303.54,293.34,303.95,289.91,306.32,288.04z"/>
					</g>
				</g>
				<g>
					<g>
						<g>
							<path class="st30" d="M269.47,221.63c0,0-6.12-0.45-15.22,4.73c0,0-1.83,15.39,3.03,21.08l0.7,9.76l24.55-0.11
								c0,0,1.36-17.42,6.41-21.82l-1.68-8.67C287.25,226.6,279.77,221.45,269.47,221.63z"/>
						</g>
					</g>
					<path class="st27" d="M259.22,223.99c0,0,9.17-5.04,21.24-0.53l-4.1,2.57C271.12,229.31,263.88,228.04,259.22,223.99
						L259.22,223.99z"/>
					<path class="st31" d="M285.22,242.28l-0.8,0.75c0,0-3.34-2.27-5.53-5.71l3.89,17.25L285.22,242.28z"/>
				</g>
			</g>
		</g>
		<g>
			<g>
				<path class="st16" d="M132.14,285.29c0,0,5.78,7.29,2.76,16.11c-3.02,8.82-11.38-0.64-11.38-0.64L132.14,285.29z"/>
				<path class="st2" d="M132.99,221.04c0,0-0.66-2.78-6.82-5.41l4.34,34.14l0.41-2.07l-3.32,42.88l9.75-0.57
					C139.41,238.27,132.99,221.04,132.99,221.04z"/>
			</g>
			<g>
				<g>
					<path class="st2" d="M114.22,211.67c0,0-10.55,0.43-18.39,5.22l-1.61,56.5h37.07v-49.94c0-3.07-0.83-5.65-1.94-6.2
						C126.86,216.01,120.28,212.25,114.22,211.67z"/>
					<polygon class="st32" points="95.05,243.97 100.37,236.58 100.37,251.71 95.05,250.65 					"/>
					<path class="st2" d="M94.4,266.74c0,0.1,9.9,0,9.9,0v-2.28h2.15c0,0,10.37,2.32,13.86-7.07l-8.41-1.95l-17.2,3.93L94.4,266.74z
						"/>
				</g>
				<g>
					<g>
						<path class="st2" d="M107.77,226.47c0,0-9.86,13.1-20.26,28.37c-1.17,1.71-3.97,2.6-6.04,2.55l0,0
							c-4.67-0.12-6.74-5.11-5.05-9.23c0,0,11.98-25.24,19.41-31.26C96.08,216.68,107.77,226.47,107.77,226.47z"/>
					</g>
					<g>
						<g>
							<path class="st33" d="M118.93,243.99l-8.92,11.68c-0.88,1.15-0.24,2.82,1.18,3.1l7.2,1.39c0.72,0.14,1.46-0.14,1.91-0.72
								l9-11.66c0.89-1.15,0.25-2.83-1.17-3.11l-7.28-1.41C120.13,243.12,119.38,243.4,118.93,243.99z"/>
						</g>
						<g>
							<g>
								<polygon class="st16" points="106.45,255.28 94.99,255.44 92.67,260.83 105.54,260.19 								"/>
								<path class="st16" d="M106.45,255.28l7.54-5.33c0.38-0.27,0.9-0.24,1.25,0.08v0c0.39,0.36,0.43,0.95,0.1,1.36l-1.65,2.03
									l5.68,0.61c0.73,0.09,1.15,0.88,0.83,1.54l-0.86,1.74c-0.76,1.55-2.19,2.66-3.88,3.03c-2.93,0.63-7.3,1.43-9.92-0.16
									L106.45,255.28z"/>
							</g>
							<g>
								<path class="st2" d="M77.17,246.59c0,0-4.37,7.31-1.34,11.46c3.05,4.19,16.26,6.53,27.48,5.47l0.47-11.13l-13.14-2.62
									L77.17,246.59z"/>
							</g>
						</g>
					</g>
				</g>
			</g>
			<g>
				<g>
					<path class="st16" d="M109.3,194.7l-1.17,17.74c-0.21,3.15,2.06,5.92,5.19,6.34l0,0c3.35,0.45,6.41-1.96,6.76-5.33l1.53-14.85
						L109.3,194.7z"/>
					<path class="st17" d="M109.78,199.93c0,0-3.02,12.7,10.37,12.74l0.7-6.75L109.78,199.93z"/>
				</g>
				<g>
					<path class="st17" d="M114.29,179.26c0,0-8.28,1.24-8.07,6.53c0.21,5.3,0.92,10.9,0.92,10.9l4.53-8.66L114.29,179.26z"/>
					<path class="st17" d="M129.12,184.39c0,0,6.07,8.29-2.65,11.98l-1.45-0.72c0,0-2.62-6.46,0.83-9.87L129.12,184.39z"/>
					<path class="st16" d="M117.88,209.69l-0.38-0.02c-5.61-0.28-9.93-5.07-9.65-10.68l0.58-11.47c0.07-1.45,1.31-2.57,2.76-2.5
						l13.38,0.68c2.59,0.13,4.59,2.34,4.46,4.94l-0.48,9.41C128.28,205.66,123.49,209.98,117.88,209.69z"/>
					<g>
						<path class="st14" d="M119.11,197.64c-0.06,0.45-0.47,0.78-0.93,0.72c-0.45-0.06-0.78-0.47-0.72-0.93
							c0.06-0.45,0.47-0.78,0.93-0.72C118.85,196.77,119.17,197.19,119.11,197.64z"/>
						<path class="st14" d="M126.2,197.98c-0.06,0.45-0.47,0.78-0.93,0.72c-0.45-0.06-0.78-0.47-0.72-0.93
							c0.06-0.45,0.47-0.78,0.93-0.72C125.94,197.11,126.26,197.52,126.2,197.98z"/>
						<path class="st34" d="M122.62,199.03l0.09,2.35c0,0-0.21,1.25-1.97,0.66"/>
						<path class="st14" d="M116.19,194.99c0.05,0.01,0.1,0.02,0.15,0.02l3.76,0.05c0.42,0.01,0.76-0.33,0.77-0.75
							c0.01-0.42-0.33-0.76-0.75-0.77l-3.76-0.05c-0.42-0.01-0.76,0.33-0.77,0.75C115.59,194.6,115.85,194.91,116.19,194.99z"/>
						<path class="st14" d="M124.74,195.26c0.05,0.01,0.1,0.02,0.15,0.02l2.3,0.03c0.42,0.01,0.76-0.33,0.77-0.75
							c0.01-0.42-0.33-0.77-0.75-0.77l-2.3-0.03c-0.42-0.01-0.76,0.33-0.77,0.75C124.14,194.88,124.39,195.19,124.74,195.26z"/>
						<path class="st34" d="M116.6,202.76c0,0,3.21,3.08,7.83,0.49"/>
					</g>
					<path class="st17" d="M107.73,197.87c0,0,6.76-3.12,6.37-13.9l-6.19-0.78l-0.09,1.56L107.73,197.87z"/>
					<path class="st16" d="M110.57,196.87c-0.1,1.89-1.71,3.35-3.6,3.25c-1.89-0.1-3.35-1.71-3.25-3.6c0.1-1.89,1.71-3.35,3.6-3.25
						C109.21,193.36,110.67,194.97,110.57,196.87z"/>
					<path class="st17" d="M112.51,189.71l3.88-1.97c0,0,8.9,4.58,12.83,0.88c4.24-4,4.02-12.63-3.79-13.99
						c-6.78-1.18-12.25,3.3-13.27,7.38C111.14,186.1,112.51,189.71,112.51,189.71z"/>
				</g>
			</g>
			<g>
				<polygon class="st35" points="94.22,273.39 94.31,285.69 131.24,285.69 131.28,273.39 				"/>
				<g>
					<g>
						<rect x="99.83" y="373.48" class="st16" width="10.02" height="13.54"/>
						<g>
							<g>
								<defs>
									<path id="XMLID_107_" d="M109.84,385.4h-12.7l-9.28,4.43c-2.1,1.08-3.42,3.24-3.42,5.6l0,0h25.4V385.4z"/>
								</defs>
								<use xlink:href="#XMLID_107_"  style="overflow:visible;fill:#262127;"/>
								<clipPath id="XMLID_6_">
									<use xlink:href="#XMLID_107_"  style="overflow:visible;"/>
								</clipPath>
							</g>
							<path class="st17" d="M96.1,385.88l2.86-3.87c0,0,4.47-0.82,4.08,4.05L96.1,385.88z"/>
						</g>
					</g>
					<g>
						<polygon class="st35" points="114.54,278.86 110.61,375.98 95.61,375.98 94.22,278.86 						"/>
						<polygon class="st36" points="93.64,369.73 110.86,369.73 110.61,375.98 93.64,375.98 						"/>
					</g>
				</g>
				<g>
					<g>
						<rect x="118.71" y="373.48" class="st16" width="10.02" height="13.54"/>
						<g>
							<g>
								<defs>
									<path id="XMLID_106_" d="M118.71,385.4h12.7l9.28,4.43c2.1,1.08,3.42,3.24,3.42,5.6l0,0h-25.4V385.4z"/>
								</defs>
								<use xlink:href="#XMLID_106_"  style="overflow:visible;fill:#262127;"/>
								<clipPath id="XMLID_7_">
									<use xlink:href="#XMLID_106_"  style="overflow:visible;"/>
								</clipPath>
							</g>
							<path class="st17" d="M132.45,385.88l-2.86-3.87c0,0-4.47-0.82-4.08,4.05L132.45,385.88z"/>
						</g>
					</g>
					<g>
						<g>
							<polygon class="st35" points="131.28,280.96 130.45,375.98 114.54,375.98 113.47,282.5 							"/>
							<polygon class="st37" points="113.51,286.08 118.51,286.08 114.13,340.41 							"/>
						</g>
						<polygon class="st36" points="132.45,369.73 114.38,369.73 114.45,375.98 132.45,375.98 						"/>
					</g>
				</g>
			</g>
		</g>
	</g>
</g>
</svg>
