<?xml version="1.0" encoding="utf-8"?>
<!-- Generator: Adobe Illustrator 23.0.0, SVG Export Plug-In . SVG Version: 6.00 Build 0)  -->
<svg version="1.1" id="Layer_1" xmlns="http://www.w3.org/2000/svg" xmlns:xlink="http://www.w3.org/1999/xlink" x="0px" y="0px"
	 viewBox="0 0 2400 1055" style="enable-background:new 0 0 2400 1055;" xml:space="preserve">
<style type="text/css">
	.st0{opacity:0.1;fill-rule:evenodd;clip-rule:evenodd;fill:#9393FE;enable-background:new    ;}
	.st1{fill-rule:evenodd;clip-rule:evenodd;fill:#F8F8FF;}
</style>
<path class="st0" d="M2160,348.97c-45.2-4.74-75.83-7.15-82.79-5.88C2039.95,349.89,482,478.67,410.87,471.85
	c-20.92-2-327.24-35.15-410.87-47.51v385.35c86.38-135.03,463.18-27.54,591.66,36.63c338.69,169.16,496.41,215.22,896.06,8.37
	c270.44-139.98,662.46-16.02,861.73,137.55L2160,348.97z"/>
<path class="st1" d="M2400,47.1c-52.94,0.87-255.13,81.33-359.5,103.9c-109.5,23.68-156-58.17-327-118s-99-7.66-217,76
	s-225.5,45.32-486-25s-185-18.17-276-6s-65,88.32-150,76S446,92.83,366.5,70C318.83,56.31,30.82,117.09,0,152.56V667.5
	c19.36,6.24,278.93,14.45,298.67,24.3c338.69,169.16,506.41,365.22,906.06,158.37c396.48-205.21,887.08-55.49,1195.27,178.56
	L2400,47.1L2400,47.1z"/>
</svg>
